<?xml version="1.0" standalone="no"?>
<!DOCTYPE svg PUBLIC "-//W3C//DTD SVG 20010904//EN"
 "http://www.w3.org/TR/2001/REC-SVG-20010904/DTD/svg10.dtd">
<svg version="1.0" xmlns="http://www.w3.org/2000/svg"
 width="1262.000000pt" height="1280.000000pt" viewBox="0 0 1262.000000 1280.000000"
 preserveAspectRatio="xMidYMid meet">
<metadata>
Created by potrace 1.15, written by Peter Selinger 2001-2017
</metadata>
<g transform="translate(0.000000,1280.000000) scale(0.100000,-0.100000)"
fill="#fff" stroke="none">
<path d="M6373 12778 c-12 -13 -35 -51 -52 -85 -60 -120 -194 -241 -365 -328
-166 -84 -287 -115 -451 -115 -111 0 -189 -19 -258 -63 -110 -71 -195 -94
-577 -157 -258 -43 -496 -95 -620 -137 -443 -147 -662 -398 -711 -814 -38
-327 54 -698 287 -1159 167 -330 205 -382 406 -544 129 -104 230 -231 366
-456 66 -111 98 -140 212 -193 54 -25 109 -59 127 -78 59 -62 291 -382 337
-463 53 -96 91 -207 101 -293 9 -77 1 -79 -76 -24 -70 50 -117 118 -217 316
-123 241 -266 416 -449 547 -267 192 -709 319 -1343 385 -215 22 -1036 25
-1230 5 -260 -28 -495 -72 -682 -127 -242 -72 -376 -138 -673 -331 -110 -72
-221 -142 -246 -157 -59 -34 -193 -176 -225 -238 -13 -27 -27 -69 -30 -93 -6
-39 -3 -49 24 -83 47 -59 77 -127 116 -263 99 -345 126 -638 126 -1366 0 -424
20 -652 80 -907 51 -222 156 -479 255 -627 211 -314 491 -458 848 -436 354 21
687 147 1165 438 646 392 797 476 1005 552 210 78 431 120 592 114 l80 -3 -40
-27 c-53 -36 -175 -80 -344 -124 -288 -75 -348 -101 -565 -247 -199 -133 -343
-250 -670 -545 -403 -365 -486 -483 -591 -847 -53 -185 -97 -398 -127 -615
-20 -142 -23 -208 -23 -480 0 -318 3 -353 46 -635 40 -254 191 -877 285 -1171
48 -151 70 -176 182 -210 48 -14 112 -35 142 -46 38 -14 94 -22 180 -27 l126
-8 126 -67 c138 -73 235 -110 319 -121 46 -6 62 -14 105 -55 97 -92 203 -131
500 -185 113 -20 265 -57 375 -90 336 -101 423 -110 659 -71 85 14 254 35 375
46 406 38 554 68 712 145 213 105 307 271 306 545 0 229 -48 523 -187 1155
-125 567 -160 808 -160 1110 -1 256 7 316 92 715 l57 265 0 280 c0 271 1 282
23 330 13 28 35 63 50 78 29 31 82 63 82 50 0 -5 -10 -177 -21 -383 -25 -441
-30 -1026 -11 -1225 66 -685 239 -1154 586 -1589 277 -348 692 -646 1089 -782
219 -75 294 -123 268 -172 -6 -12 -7 -23 -2 -26 13 -8 266 -33 461 -45 212
-14 1418 -34 1456 -25 106 25 187 114 293 321 40 78 64 112 104 146 43 37 58
59 86 128 64 155 124 243 331 479 172 196 264 316 386 500 343 521 507 1018
465 1411 -30 274 -137 508 -324 706 -122 128 -236 198 -422 256 -157 49 -312
74 -675 107 -466 43 -645 69 -868 126 -217 55 -360 116 -631 267 -200 111
-264 139 -441 192 -182 55 -218 72 -274 129 -37 36 -84 131 -73 143 5 4 178
-35 492 -112 590 -144 860 -180 1180 -156 608 46 1094 196 1497 463 190 125
593 434 642 491 68 80 122 171 264 442 188 361 255 514 320 735 85 288 130
638 108 842 l-7 66 -72 22 c-245 74 -411 262 -577 655 -122 288 -253 499 -599
965 -140 189 -312 365 -423 434 -214 132 -478 196 -808 196 -287 0 -505 -49
-677 -152 -71 -42 -244 -207 -329 -312 -200 -248 -329 -500 -591 -1151 -135
-337 -187 -445 -264 -563 -100 -151 -255 -316 -457 -487 -59 -50 -105 -102
-164 -185 -45 -63 -106 -151 -137 -194 -71 -101 -167 -198 -224 -225 -40 -19
-116 -29 -129 -15 -11 10 19 111 44 156 15 24 82 96 151 160 l124 117 76 153
c47 96 132 239 227 383 258 393 341 598 401 988 62 402 17 1150 -87 1456 -68
198 -162 361 -417 720 -206 291 -263 381 -354 563 -85 169 -124 217 -319 389
-58 52 -161 159 -229 239 -234 277 -341 354 -402 288z m211 -287 c323 -280
774 -813 1018 -1204 272 -438 408 -813 459 -1267 16 -145 17 -573 0 -705 -65
-532 -213 -938 -496 -1365 -192 -291 -375 -498 -488 -555 -79 -39 -96 -35
-186 44 -190 168 -275 332 -258 500 9 84 -5 138 -45 178 -44 43 -109 68 -121
46 -14 -24 9 -124 51 -224 22 -52 45 -111 52 -133 12 -36 17 -132 8 -141 -2
-2 -26 3 -53 12 -34 11 -88 17 -170 17 -116 1 -123 0 -186 -31 -35 -18 -76
-44 -89 -59 l-25 -27 55 7 c222 26 393 26 497 0 13 -4 108 -97 212 -208 257
-275 435 -427 618 -528 l71 -39 -14 -27 c-30 -59 -18 -94 77 -223 64 -87 81
-131 81 -206 l1 -63 29 22 c17 11 37 37 45 56 19 45 5 105 -40 177 -81 131
-105 172 -115 203 -12 36 -11 37 53 22 22 -5 150 -23 284 -40 135 -17 271 -37
303 -44 35 -8 58 -9 58 -4 0 23 -42 66 -88 91 -65 35 -158 53 -377 71 -248 21
-334 46 -400 116 -25 26 -30 39 -29 80 1 71 46 139 204 305 77 82 152 171 175
209 46 78 147 177 295 292 143 111 218 189 301 314 110 164 207 370 412 875
142 348 223 521 328 698 324 547 737 731 1350 601 163 -34 283 -74 416 -139
186 -91 227 -138 502 -570 30 -47 88 -127 129 -177 311 -381 406 -567 429
-834 l6 -76 79 -83 c96 -102 281 -267 376 -338 87 -64 104 -91 104 -165 0 -63
-65 -377 -118 -572 -207 -756 -514 -1265 -971 -1609 -346 -260 -882 -449
-1488 -523 -158 -19 -613 -16 -770 6 -293 40 -516 101 -749 203 -180 79 -211
88 -349 107 -139 20 -217 40 -287 76 -109 55 -132 113 -90 234 48 141 124 246
334 465 156 162 224 241 208 241 -14 0 -170 -96 -230 -142 -147 -114 -288
-289 -372 -463 -89 -183 -119 -288 -195 -693 -27 -142 -75 -215 -208 -314 -94
-69 -180 -112 -273 -134 -89 -22 -278 -22 -444 -1 -250 32 -346 38 -458 27
-347 -35 -638 -146 -738 -282 -33 -44 -56 -109 -52 -146 l3 -31 85 75 c112 99
196 158 300 210 126 63 212 85 364 91 l129 6 -7 -41 c-9 -58 -23 -198 -45
-467 -27 -311 -42 -411 -105 -705 -46 -213 -59 -339 -53 -535 4 -149 10 -206
35 -330 46 -226 58 -303 97 -635 45 -375 68 -500 146 -765 76 -263 98 -365
106 -492 9 -164 -25 -288 -102 -367 -49 -49 -155 -118 -248 -161 -154 -71
-305 -101 -572 -115 -104 -5 -246 -16 -315 -25 -159 -19 -356 -19 -436 0 -34
8 -87 25 -117 39 -90 39 -210 65 -387 81 -282 26 -369 49 -495 129 -370 235
-639 346 -915 376 -52 6 -112 15 -132 21 -52 14 -97 55 -123 114 -13 27 -47
86 -75 130 -29 44 -61 98 -70 121 -34 78 -128 521 -169 794 -155 1029 -89
1691 214 2155 161 248 497 592 801 822 457 346 1014 559 1637 627 242 26 277
-4 285 -247 8 -246 -27 -511 -87 -665 l-21 -52 25 0 c41 0 91 54 119 128 24
65 66 252 66 296 0 13 3 25 6 28 3 3 44 -34 92 -82 48 -48 108 -99 133 -114
61 -35 132 -43 183 -22 l39 16 -22 24 c-12 13 -54 33 -94 46 -102 32 -152 63
-183 115 -34 58 -69 85 -110 85 -38 0 -36 -8 -54 215 -24 292 -59 442 -139
610 -57 119 -109 196 -245 365 -56 69 -121 152 -143 185 -102 149 -175 202
-293 212 -84 7 -84 7 -39 -108 l32 -79 39 0 c70 0 144 -46 258 -160 116 -116
220 -261 246 -345 34 -108 -11 -137 -326 -210 -151 -35 -426 -73 -640 -90
-107 -8 -204 -20 -230 -30 -25 -8 -96 -53 -159 -99 -175 -129 -292 -198 -601
-356 -157 -81 -361 -187 -455 -237 -93 -50 -257 -134 -364 -188 -426 -213
-570 -242 -801 -164 -79 27 -116 33 -221 39 -112 5 -130 9 -171 33 -87 51
-140 138 -228 372 -55 147 -93 229 -117 257 -10 11 -15 45 -17 110 -2 96 -15
140 -82 298 -27 63 -28 73 -35 305 -4 132 -12 299 -18 370 -12 139 -9 206 15
351 18 102 10 204 -26 358 -11 46 -33 146 -49 222 -19 89 -56 216 -105 352
-97 271 -118 355 -118 458 0 99 25 154 104 231 105 102 189 143 753 374 673
276 1446 371 2190 268 492 -68 844 -183 1118 -365 165 -110 337 -288 450 -466
19 -31 81 -146 136 -256 112 -222 186 -341 282 -452 120 -139 150 -190 151
-251 0 -21 -6 -49 -15 -61 -30 -47 -246 -160 -406 -213 -80 -26 -94 -28 -280
-29 -175 -1 -201 -4 -241 -22 -25 -12 -51 -28 -59 -37 -12 -15 -8 -19 35 -39
66 -30 203 -36 316 -13 278 55 720 263 997 470 158 118 299 260 390 393 111
164 178 222 255 222 23 0 25 3 19 33 -9 44 -10 143 0 195 l7 42 -44 0 c-53 0
-91 -33 -107 -94 -55 -203 -82 -252 -230 -415 -208 -228 -269 -246 -394 -118
-49 51 -76 92 -144 227 -88 173 -328 584 -439 754 -113 173 -211 283 -537 606
-471 467 -626 651 -750 891 -203 395 -275 812 -201 1168 32 151 102 285 209
397 162 171 351 244 762 294 201 24 277 41 507 114 223 70 270 82 403 100 280
39 531 131 780 288 139 87 284 162 344 177 1 1 44 -35 95 -78z m-1305 -4758
c11 -21 63 -85 116 -143 133 -144 161 -203 130 -276 l-16 -39 -104 106 c-137
140 -199 239 -219 352 l-7 37 40 0 c37 0 42 -4 60 -37z m-349 -1993 c0 -20 -7
-33 -22 -41 -27 -14 -158 -22 -158 -9 0 22 44 41 178 79 1 1 2 -12 2 -29z
m2958 -223 c79 -27 194 -96 189 -112 -2 -5 -19 -21 -38 -33 -68 -47 -204 -13
-328 82 -32 25 -66 57 -76 72 l-17 27 98 -5 c70 -4 120 -13 172 -31z m-252
-158 c104 -27 172 -59 253 -118 89 -65 91 -66 241 -106 174 -46 337 -115 550
-230 361 -196 481 -250 686 -310 200 -58 388 -88 844 -135 605 -62 753 -91
945 -188 204 -102 348 -246 445 -446 81 -165 94 -227 94 -456 1 -164 -3 -213
-22 -310 -83 -420 -230 -763 -433 -1015 -50 -62 -166 -164 -230 -203 -31 -19
-37 -29 -42 -67 -12 -84 -62 -162 -227 -350 -53 -60 -116 -139 -140 -175 -59
-88 -128 -160 -230 -239 -47 -36 -91 -72 -98 -81 -26 -31 -60 -108 -92 -205
l-33 -100 -96 0 c-53 0 -159 -6 -236 -13 -251 -23 -781 8 -1104 64 -711 124
-1203 364 -1598 778 -180 188 -299 363 -419 611 -142 296 -219 575 -271 990
-33 261 -23 1072 18 1440 11 101 47 235 72 268 12 17 16 17 52 3 22 -9 99 -27
170 -41 238 -47 273 -64 409 -193 152 -145 217 -166 224 -72 4 57 -10 71 -143
137 -131 66 -166 91 -191 139 -19 36 -19 37 0 48 10 6 67 42 125 80 105 69
174 105 199 106 17 0 27 -29 57 -172 34 -164 68 -258 113 -308 l37 -41 32 20
c66 41 54 118 -32 202 -92 89 -108 135 -106 305 1 157 54 404 86 404 6 0 47
-9 91 -21z"/>
<path d="M5021 6843 c-57 -28 -127 -108 -167 -189 -48 -96 -53 -184 -16 -249
19 -33 80 -90 88 -82 2 1 -4 45 -12 97 -7 52 -14 119 -14 147 0 51 2 55 64
120 65 70 82 96 96 144 10 34 7 34 -39 12z"/>
<path d="M6185 6721 c-129 -34 -197 -65 -308 -139 -79 -53 -124 -103 -166
-188 -82 -165 -82 -363 -1 -559 114 -273 353 -450 605 -448 371 3 608 262 642
701 6 83 8 88 46 129 l40 43 -34 1 c-19 0 -41 3 -50 7 -9 4 -42 57 -74 118
-96 188 -172 263 -322 321 -92 35 -272 42 -378 14z m275 -107 c141 -32 294
-133 342 -227 16 -33 18 -46 9 -85 -10 -48 -5 -88 24 -192 27 -101 11 -213
-49 -334 -90 -182 -253 -286 -450 -286 -91 0 -153 14 -245 55 -61 28 -63 30
-57 59 27 138 169 226 315 197 77 -15 153 -55 192 -98 26 -30 30 -32 23 -12
-18 48 -9 200 14 263 32 87 82 165 125 197 35 25 36 29 20 38 -11 5 -48 13
-83 16 -94 10 -141 24 -162 48 -31 37 -75 119 -98 185 -13 34 -26 62 -30 62
-13 0 -67 -92 -96 -163 -14 -38 -36 -75 -48 -82 -34 -22 -135 -45 -202 -45
-71 0 -116 13 -163 48 -31 23 -33 27 -27 66 20 125 122 236 257 281 107 36
255 39 389 9z m-513 -457 c48 -25 103 -84 125 -134 61 -137 14 -284 -108 -340
-30 -14 -60 -23 -67 -20 -7 3 -46 70 -86 150 -66 129 -75 153 -79 212 -3 37 1
86 8 112 l13 45 81 -4 c49 -3 94 -11 113 -21z"/>
</g>
</svg>
