<svg xmlns="http://www.w3.org/2000/svg" id="Слой_1" data-name="Слой 1" viewBox="0 0 44.28 35.16"> <defs> <style>.cls-1{fill:#fff;}</style> </defs> <title>ParkChaket</title> <path class="cls-1" d="M43.33,11.75c.48,0,0,.44,0,0Z" transform="translate(-9.87 -7.25)"/> <path class="cls-1" d="M20.63,14.49c.74.33.36.71,0,0Z" transform="translate(-9.87 -7.25)"/> <path class="cls-1" d="M22.33,13.92c.38-.32.59.3,0,0Z" transform="translate(-9.87 -7.25)"/> <path class="cls-1" d="M25.57,15.77c-.26.36-.44-.42,0,0Z" transform="translate(-9.87 -7.25)"/> <path class="cls-1" d="M31.65,8.89Z" transform="translate(-9.87 -7.25)"/> <path class="cls-1" d="M31.21,13.24c.47.06-.12.65,0,0Z" transform="translate(-9.87 -7.25)"/> <path class="cls-1" d="M31.21,19.2c.41.33-.36.38,0,0Z" transform="translate(-9.87 -7.25)"/> <path class="cls-1" d="M33.53,26.65v0s0,0,0,0Z" transform="translate(-9.87 -7.25)"/> <path class="cls-1" d="M33.35,26.5h0s0,0,0,0S33.35,26.47,33.35,26.5Z" transform="translate(-9.87 -7.25)"/> <path class="cls-1" d="M34.9,17.59c0,.09,0,.15,0,.21C34.9,17.68,34.93,17.29,34.9,17.59Z" transform="translate(-9.87 -7.25)"/> <path class="cls-1" d="M34.22,17.47c.38-.27-.27.39,0,0Z" transform="translate(-9.87 -7.25)"/> <path class="cls-1" d="M33.56,16.34c.51.06-.09.68,0,0Z" transform="translate(-9.87 -7.25)"/> <path class="cls-1" d="M41.64,14.49c0-.51.44,0,0,0Z" transform="translate(-9.87 -7.25)"/> <path class="cls-1" d="M39.16,15.53c.18-.53.57-.15,0,0Z" transform="translate(-9.87 -7.25)"/> <path class="cls-1" d="M43.22,17.35c-.33.42-.39-.33,0,0Z" transform="translate(-9.87 -7.25)"/> <path class="cls-1" d="M44.47,17c-.09,0-.21,0-.24-.12s.12-.09.12-.24c-.27.15-.54-.26-.57,0,.15,0,.12.24.24.36-.36-.36-.24.45-.69.36,0-.12-.08-.15-.11-.24.17-.15.23-.45.44-.56-.09,0-.12-.09-.12-.24-.59,0-.8-.33-1.22-.12,0,.06-.92,1.4-1,.36.15,0,.15.14.33.11-.3-.35.12-.83,0-.92,0,.12-.12.18-.24.24,0-.24-.3-.15-.24-.45s.12-.42.33-.44c-.24.65.36.2.62.56-.18-.45.39-.42.27-.56a2,2,0,0,0-.68.23.75.75,0,0,0,.12-.56.52.52,0,0,0,.56-.24c-.06-.15-.45,0-.45-.24a5.25,5.25,0,0,1,.69,0c-.24.24.06.24.24.36,0-.15,0-.33.12-.36s0,.42.33.36c0-.42-.45-.3-.45-.69-.42.09-.75.21-.9-.12.48-.32,1-.21,1.46-.35-.09-.45.54-.42.57-1h-.57a5.77,5.77,0,0,0-.44.69c-.15.06-.21-.15-.69,0,.18-.15.18-.45.33-.57.36.39.21-.24.77-.56A2.32,2.32,0,0,0,44,11.9c.06-.57-.24-.45-.12-.81-.48-.09-.62.72-1,.36.09-.21.27-.33.33-.57-.3.09-.81-.38-.57-.12,0,.15.21.12.24.24-.36-.09-.24.3-.45.36s-.71-.71-1-.45c.21,0,.27.12.24.36-.42.06-.75.18-1-.12.06-.18.18-.48.12-.56-.06.2-.12-.06-.24-.12.18.41,0,.23-.23.44.44.21-.21.27.23.57-.35-.06-.29.3-.56.36,0-.12-.09-.15-.12-.24s.12.09.24.12c.06-.36-.24-.45,0-.69-.36-.09-.36.18-.57.24,0-.15,0-.33-.12-.36s-.09.12-.12,0c.24-.5.27-.32.33-.35a5.33,5.33,0,0,1-.24-1.4s0,.05-.09,0a.61.61,0,0,0-.12-.44h.33c0-.21-.06-.39-.24-.45a1.23,1.23,0,0,0-.56.57c0-.12-.21-.15-.24,0s.12.09,0,.12c0-.15-.12-.06-.24,0a6.33,6.33,0,0,1,.77-1.14c-.06-.06-.53-.26-.56,0,.45.27-.51.33-.12.57a.55.55,0,0,0-.33.12c-.18-.42-.12-.92-.24-1.13,0,.15-.12.06-.24,0-.26.32.06.56-.32.68.24.78-.12.81.32,1.49-.26-.09-.86.21-.77-.24.6.27.27-.65.12-.8s-.24.21-.57.12c.21-.21,0-.54-.24-.69a.55.55,0,0,1,.33.12c0-.24-.09-.36-.33-.36-.26.18-.23.33-.32.45-.27-.24-.12,0-.33.12-.33-.51.06-.6-.12-1-.63.06-.27.53-.45.68-.5-.09-.3-.35-1-.12,0-.26,0-.41-.24-.44,0,.35-.24.41-.57.68.18.18,0,.42.24.69-.15,0-.18-.18-.32-.24,0,.21.11.24.11.45-.23,0-.2.29-.44.35,0-.14-.18-.17-.24-.35.42-.09.51-.87.45-.93a.65.65,0,0,1-1.23-.24,1.29,1.29,0,0,0-.77.57c-.39,0,0-.3-.24-.36a.76.76,0,0,1-.24.36c-.09-.48-.56-.18-.89-.57-.21.63-.75.54-.69,1-.26-.18-.18-.27-.12-.57-.35,0-.35-.42-.56-.57-.21.57-.45,1-.24,1.38-.45.17-.24-.3-.45-.36-.12.33-.3-.18-.44.12.62.47.17,1.43-.57,1.73,0-.15.18-.24-.12-.24s.27.18.12.44c-.18.06-.3.18-.45.24.09-.44-.41-.12-.44,0a.3.3,0,0,1,.32.24c-.21,0-.21.15-.32.24-.06-.15-.45,0-.45-.24-.09-.42-.21-.65.24-.92-.39-.12-.54.27-1-.12-.26.8.21,1.28-.23,1.73.08-.51-.33-.54-.45-.24,0-.33-.15-.81-.78-.81a.5.5,0,0,0,.12.69c-.74-.09-.18.48-.68.68s0-.56-.45-.44c-.06.8-1.13.3.12.68-.06.39-.45-.3-.33.24a.62.62,0,0,1,.45.12.34.34,0,0,1,.24-.36,3.26,3.26,0,0,1-1,1.82c.24.36.24-.33.33,0-.36.27,0,.66-.24.92a1,1,0,0,0-1-.8c.12-.33-.18-.8-.33-.45.15,0,.39.33.12.36a.42.42,0,0,0-.68.24c.23.09.62,0,.77.45-.18.44.3.59-.24.92.33.12,0,.48,0,.68.36.06.33-.29.45-.44-.15,0-.27,0-.24-.24.27.27.6-.27.69.36-.15-.12-.27-.12-.33.12.54.18.89-.15,1.34-.12a.69.69,0,0,0,.24.35c.48-.59-.09.21.45.45.23,0,.71-.33,1,0,0,.3-.24.27-.33.45,0-.54-.21.09-.33.12s-.09-.39-.32-.36c-.12.66-.42-.15-.69.36.48-.09.57.27.69.56-.15-.14-.33-.06-.45.12a4,4,0,0,1,.77.24c.06-.3.72-.74.9-.24-.48.09.12.51-.33.57.12-.18.12-.27-.12-.36-.12.27,0,.24-.12.69.27-.09.42-.36.89-.24.21-.24-.2-.36-.23-.54,0,.12.59-.56.68-.59s.15.26.24.23,0-.32.12-.35c-.09.5.21-.09.24.24-.24.17-.6.2-.78.44.06,0,.12.09,0,.12s-.21,0-.24.12a1.81,1.81,0,0,1,.9.24c-.39,0,.24.39-.12.36-.36.15-.09-.36-.45-.24-.27.48-.47.65-1,.36-.15.47.18.5.24.8.21,0,.21-.15.33-.24,0,.33,0,.63-.33.57.15-.36-.36-.09-.24-.45h-.69c-.06.27-.09.6-.44.57.06-.27-.48-.3-.69-.12.39.12.06.21.12.56.39-.08.42.18.45.45h-.33c.09.42.15.84.45,1,.09-.32.68-.05.24-.44.38,0,.71.41.89,0,.09.21.74.36.77.24-.17,0,0-.15.24-.12-.21-1.17,1.46-.72,2-.81.18-.74.8-.15.89-.68.9.06,1.37.59,2.48.44.38.33.35,1.08.44,1.26.63,1.43,2,2,1.55,4.05l-.06.3-6.94.23h14l-5.46-.23a.37.37,0,0,0-.06-.09,13.91,13.91,0,0,1-.27-3.7c1.11-.8,2-1.85,3.49-2.29-.12.47.75.83,1.22,1,0-.42.81-.48.24-.8.72.17,1.07.59,1.58.44a.6.6,0,0,0,1,.24c-.18-.15-.44-.24-.44-.57.12,0,.32,0,.32-.11a.81.81,0,0,0-.44-.45c.27-.12.27-.84.56-.57.09-.3-.21-.24-.24-.44.36.08.24-.3.45-.36-.06.41-.15.77,0,.92.24-.83.9-1.37,1.58-.92.09-.3.36-.39.45-.69.42.27.5-.47.89,0,.15-.5-.18-.5,0-1.13C44.08,17.17,44.35,17.17,44.47,17ZM20.18,14.37a.34.34,0,0,1,.24.36C20.18,14.79,20.18,14.58,20.18,14.37Zm.12.92c.09-.2.21,0,.33,0C20.54,15.5,20.42,15.32,20.3,15.29Zm.33.36c.06-.18.09,0,.24,0C20.84,15.8,20.63,15.77,20.63,15.65Zm.44.45a.12.12,0,0,1,.24,0C21.25,16.28,21.22,16.1,21.07,16.1ZM22.89,18v-.36c.24-.06.3.09.45.12C23.31,18,23.13,18.07,22.89,18Zm.54-6.17c-.06.18-.09,0-.24,0C23.25,11.72,23.43,11.75,23.43,11.87Zm-.33.24c-.09.11-.18.11-.24,0C22.56,11.33,23,12.19,23.1,12.11ZM23,14.16c.09.09-.45.33-.33.12C22.68,14.25,22.89,14.07,23,14.16Zm-.65-1c.09.18.35.18.32.45-.09,0-.12-.12-.23-.12s-.09.15-.12.23C21.88,13.54,22.36,13.45,22.33,13.12Zm-.12,2.74c0-.09.12-.12.12-.24-.27,0-.36.21-.57,0C21.73,14.79,22.89,15.77,22.21,15.86Zm.24.24c.17-.27.47.15.56-.12C23.43,16.25,22.51,16.31,22.45,16.1ZM23.22,15c.09.06.21.15.24,0C23.91,15.09,23,15.44,23.22,15Zm.57,2.62c-.09,0-.12-.12-.24-.12C23.61,17.2,24.08,17.41,23.79,17.59ZM24,12.91c.32-.21.08.06.23.45-.38.09-.32-.87-.68-.45-.27-.15.3-.77-.33-.45.12-.24.45-.24.45-.56.35-.09.21.32.56.24C24.05,12.43,23.91,12.55,24,12.91Zm-1.79,8.67a.34.34,0,0,1,.24.36A.34.34,0,0,1,22.21,21.58Zm2.59-7.42c0-.09,0-.12-.12-.12.09-.09.48-.36,0-.36.18-.44.12,0,.45,0,.06.18-.45.27-.12.36C25,14.16,24.89,14.13,24.8,14.16Zm.33,1.37c-.33-.09.12-.24,0-.44h.44C25.6,15.53,25.19,15.41,25.13,15.53Zm-.24,4.68c0,.48-.51.33-.69.12C24.23,20.09,24.71,20.27,24.89,20.21Zm-2.36,1.73V21.7c.24,0,.36,0,.33.24Zm1.14-.81c-.33.09.27.18.12.45-.54-.21-1,.21-1-.56.12,0,.09.14.12.23a.77.77,0,0,1,.57-.12c-.09-.41-.33.06-.57-.23.12-.6.66,0,.57,0,.09,0,.12-.24.12-.24.36.15.36.53.77.68C24.17,21.67,23.7,21.37,23.67,21.13Zm.89.12c.27-.29-.18-.2-.24-.12s-.09-.23-.24-.23c.12-.39.33,0,.69-.24.06.09.15.21,0,.24,0,.15.21.09.33.12C25,21.19,24.86,21.25,24.56,21.25Zm.57-1c-.09-.24-.66.06-.57-.36C24.68,19.73,25.25,19.76,25.13,20.21Zm.77-.68c-.06.11-.27.11-.24.35-.15,0-.12-.24,0-.24,0-.2-.38-.06-.44-.23s.15-.21,0-.24a.47.47,0,0,1,.68-.12C25.87,19.14,25.63,19.53,25.9,19.53ZM25.69,18a.12.12,0,0,1,.24,0C25.81,18.12,25.72,18.18,25.69,18ZM33,15.09c-.14.14-.5.29-.68.11C32.37,14.82,32.76,15,33,15.09Zm-.89-.93c.09,0,.12,0,.12-.12.36.15-.12.36-.24.12S32.1,14.1,32.1,14.16Zm-1.7-1c.18-.36.3.3.33.45a.19.19,0,0,0-.24.11C30.13,13.65,30.82,13.21,30.4,13.12Zm.36.68a.33.33,0,0,1-.33.24C30.46,13.89,30.55,13.8,30.76,13.8ZM27.6,10.14c.18,0,.18.12.33.12C28,10.5,27.42,10.44,27.6,10.14Zm-.12.8c0,.12-.21.09-.33.12C27.15,10.94,27.36,11,27.48,10.94Zm-.65,7.69c-.15-.3.38-.12.68,0-.24.09-.42.51-.68.24C27,18.75,27.15,18.39,26.83,18.63Zm.44-6.08c0,.3-.18.36-.32.45-.12.33-.12-.18.11-.12-.06-.09-.08-.21-.23-.24C26.86,12.52,27.09,12.58,27.27,12.55ZM26,16c.3.3.51,0,.9.24a.12.12,0,0,1-.24,0c-.21,0,.18.41-.12.56-.15,0-.42-.38-.45-.12C26,16.52,25.9,16.1,26,16Zm.12,2.65c.18,0,.18.12.33.12C26.53,19,26,18.9,26.14,18.63Zm.78,1.46c-.15.12-.33.18-.45.36-.12,0-.06-.12,0-.12,0-.21-.18-.27-.45-.24,0-.3.45-.09.33-.45s-.18.15-.33-.11c0-.09,0-.12.12-.12v-.24a6.45,6.45,0,0,1,1.7,0c-.21.65,0,.68.24,1.25C27.69,20.06,27,20.75,26.92,20.09Zm.92-10.28a.12.12,0,0,1,.24,0C28,10,28,9.81,27.84,9.81Zm.21-.57c0-.14.27-.08.44-.11a.18.18,0,0,1-.11.23c.06.12.26.12.23.36C28.23,9.75,28.29,9.36,28.05,9.24Zm.33,11.33c0-.27.35-.27.44-.45,0,.45.72.18.69.69C28.94,20.93,28.85,20.54,28.38,20.57Zm1.25,0c-.21,0-.27-.21-.24-.45C29.6,20.12,29.66,20.3,29.63,20.57ZM30,10.26c-.18-.06,0-.12.11-.12-.17-.09,0-.57-.32-.45a.57.57,0,0,0,.12-.36c.17.06.29.18.44.24.15.27-.3.42,0,.45A.79.79,0,0,1,30,10.26Zm.23,8.94c.15-.15.15-.42-.12-.45.24-.36.3.39.57.36C30.52,19.41,30.46,19.2,30.19,19.2Zm.66-4.11c.12,0,.09.2.12.35h-.33C30.58,15.17,30.85,15.26,30.85,15.09Zm0,5.6c.6.53,1,1.22,1.7,1.73,0,.32-.21.38-.33.56A2.31,2.31,0,0,1,30.85,20.69Zm2,1.25a4,4,0,0,1-1.46-1.37c.35-.39,1-.18,1-.69.09.06.21.15.24,0,.12,0,.06.12,0,.12,0,.24.38.06.56.12C33.38,20.9,33.41,21.79,32.88,21.94Zm4.61-9.72c0,.24,0,.36-.23.36,0-.09,0-.12.12-.12s-.15-.09-.24-.12S37.35,12.22,37.49,12.22Zm-.44,7.1c0,.38-.63.06-.9,0,.24-.12.54-.21.57-.57h.33C37.29,19.35,36.27,19.11,37.05,19.32Zm-.81-2.66c.15,0,.09.3.12.45s-.12-.06-.12-.12-.12,0-.12.12-.06-.12,0-.12C35.91,16.75,36.15,16.9,36.24,16.66Zm.36,1.61c0,.09-.12.12-.12.24h-.24v-.44C36.36,18.12,36.36,18.3,36.6,18.27Zm.45-5.84c-.18.33,0,.36-.12.81C36.33,13.27,36.69,12.46,37.05,12.43Zm-.36.81c-.06.27.21.24.12.56-.45-.15-.36.24-.69.24v-.68C36.45,13.45,36.42,13.21,36.69,13.24Zm-.48-3.67s0,0,0,0h0c-.06.06-.21.21-.21.27a.18.18,0,0,0,.12,0c-.12.06-.15.06-.12,0C35.8,9.84,35.71,9.54,36.21,9.57ZM34.78,8.44c-.09.21-.12-.06-.12-.24C34.34,8.05,34.93,8.11,34.78,8.44Zm-.44.8c.11,0,.08-.14.11-.23s.09.2.12.35c-.17,0-.17-.12-.32-.12S34.34,9.18,34.34,9.24Zm-.45,7.42c0-.2.15.06.12.24S33.86,16.81,33.89,16.66Zm-.21-9a.12.12,0,0,1,0,.23C33.5,7.81,33.68,7.75,33.68,7.64Zm.21,14.06c-.36-.18.24-.36.24-.57C34.37,21.22,33.92,21.52,33.89,21.7Zm-.12-.92a1,1,0,0,1,1.13-1.37c-.09.32-.18.12-.45.12-.05.23.15.2.33.23C34.57,20.21,34.37,20.72,33.77,20.78Zm1.13.35c-.33-.14.12-.38,0-.68.24.06.3-.09.45-.12-.42-.33,0-.57,0-1,.36-.06.27.35.68.24.06.35.21.53.57.56C36.12,20.54,35.41,20.72,34.9,21.13Zm1.46-1.37c.12-.38.21.12.33.12C36.63,20.21,36.51,19.7,36.36,19.76Zm1.58,1.37c-.27.06-.24-.2-.56-.11.65-.51-.75.26-.57-.57.65-.06.8.21,1.13.24v.44Zm.12-11.77a.12.12,0,0,1,.24,0C38.21,9.51,38.18,9.33,38.06,9.36ZM41.76,15c-.36-.09-.36.17-.57.23s.6-.65,0-.8C41.37,14.13,41.82,14.58,41.76,15ZM41,13.8c-.06-.23.15-.2.33-.23A.33.33,0,0,1,41,13.8Zm1.1.24c-.09.21-.21,0-.32,0C41.85,13.83,42,14,42.08,14Zm-.21-.68c.06-.18.09.12.24.35h-.35C42,13.54,41.61,13.42,41.87,13.36Zm-.44-1.94c.15,0,.18.21.33.24C41.7,11.93,41.31,11.66,41.43,11.42Zm0,.57c0,.09,0,.12-.12.12.06.17.15-.06.33,0-.06.11-.27.41.12.35,0,.12-.21.09-.24.24-.21,0-.15-.3-.45-.24C41.25,12.34,41.07,11.87,41.43,12Zm-.24-.36c-.06.18-.12,0-.12-.12-.09.06-.21.09-.24.24C40.47,11.57,41.22,11.18,41.19,11.63Zm-.57.68c0,.15-.24.12-.24,0S40.5,12.34,40.62,12.31ZM40.41,12c-.08.06-.2.15-.23,0A.12.12,0,0,1,40.41,12Zm-.56,3.18c-.09.06-.21.15-.24,0S39.85,15.06,39.85,15.17ZM39.73,19c0,.42-.36-.24-.33.12-.12,0-.06-.12,0-.12s-.09-.21-.24-.24C39.34,18.39,39.46,19,39.73,19Zm-.89-2.18a.34.34,0,0,1,.23.36A.33.33,0,0,1,38.84,16.78Zm.32,3.31c.09-.18.09-.45.45-.36C39.52,19.94,39.52,20.21,39.16,20.09Zm.45.24a.12.12,0,0,1,.24,0C39.76,20.39,39.64,20.48,39.61,20.33Zm.12-2.18h-.24V17.8c.15,0,.18.21.33.24S39.79,18.15,39.73,18.15Zm0-.32a.12.12,0,0,1,.24,0C39.91,18,39.85,17.8,39.73,17.83Zm.33,2.62c-.36-.12.12-.24.12-.36C40.5,20.18,40,20.27,40.06,20.45Zm-.78-3.31c0-.3,0-.56.33-.45-.15-.14-.21-.59.24-.44-.36.59.21.8.45,1.13C39.88,17.74,39.88,16.93,39.28,17.14Zm1.46-.24c.09-.44-.41-.12-.44,0s.08-.35-.24-.44c0-.21.38-.06.44-.24-.09-.27-.59.24-.77-.12,0-.24.39-.06.57-.12a3.7,3.7,0,0,1-.24-.69c.32,0,.68.57.89.36.24.27-.48.6-.68.81a.64.64,0,0,0,.68,0C41.25,16.52,41,17,40.74,16.9Zm.9.57c-.27-.3-.24.36-.57,0-.15.36.36.09.24.45-.33,0-.33-.27-.33-.57.3.09.21-.24.33-.36C41.61,17,41.67,17.17,41.64,17.47ZM43,18c0-.15,0-.33-.12-.36.21-.39.39.21.68.12C43.39,18.18,43.33,17.89,43,18Z" transform="translate(-9.87 -7.25)"/> <path class="cls-1" d="M11.33,30.73a7.39,7.39,0,0,1,2.06-1,6.49,6.49,0,0,1,1.93-.36,4.13,4.13,0,0,1,2.66.89,2.76,2.76,0,0,1,1.1,2.15,1.33,1.33,0,0,1-.24.8,2.45,2.45,0,0,1-.83.57,10.25,10.25,0,0,1-1.7.51c-.75.18-1.55.32-2.36.44l-.5.09a25,25,0,0,0-1.32,2.3,2.43,2.43,0,0,0,1.29-.51.7.7,0,0,1,.32-.18c.09,0,.12,0,.12.12s-.26.39-.8.81a2.57,2.57,0,0,1-1.55.62c-.18,0-.24-.06-.24-.18a3.76,3.76,0,0,1,.33-.89c.21-.48.39-.84.53-1.1l.48-.84h-.45a5.08,5.08,0,0,1-1.66-.21c-.42-.12-.63-.29-.63-.5A.37.37,0,0,1,10,34a.53.53,0,0,1,.3-.12c.06,0,.09,0,.12,0a.75.75,0,0,1,.15.21c.06.12.26.21.56.3a5.46,5.46,0,0,0,1.28.11,2.27,2.27,0,0,0,.45,0l.21-.35c.48-.78,1-1.55,1.58-2.33-.36.21-.75.45-1.1.69a1.81,1.81,0,0,1-.66.39.16.16,0,0,1-.18-.18c0-.06.12-.21.33-.42a10.7,10.7,0,0,1,1-.83,7.12,7.12,0,0,1,1-.78,1.17,1.17,0,0,1,.59-.27.39.39,0,0,1,.3.12.46.46,0,0,1,.12.3A.66.66,0,0,1,16,31a.3.3,0,0,0,0,.12h0c.09,0,.15,0,.15.09s-.12.21-.33.44a9.6,9.6,0,0,0-.66.81l-.62.83a4.08,4.08,0,0,0-.57.9c0,.06.06.09.15.09a5.57,5.57,0,0,0,1.34-.21A10.37,10.37,0,0,0,17,33.68a4.39,4.39,0,0,0,.81-.33,1,1,0,0,0,.24-.27,1.32,1.32,0,0,0,.06-.41,2.22,2.22,0,0,0-1-1.79,3.56,3.56,0,0,0-2.26-.78,6.42,6.42,0,0,0-3.25,1Z" transform="translate(-9.87 -7.25)"/> <path class="cls-1" d="M22.48,35.47a6.07,6.07,0,0,1-1,.77,1.83,1.83,0,0,1-.86.3q-.18,0-.18-.27a7.81,7.81,0,0,1,.15-1.13,10,10,0,0,1,.36-1.43L18.75,36a4.49,4.49,0,0,0-.66.06,8.49,8.49,0,0,1,.87-2.2,5.21,5.21,0,0,1,1.31-1.4,2.42,2.42,0,0,1,1.31-.63.62.62,0,0,1,.48.27l-.45.54a1.51,1.51,0,0,1,.48-.12c.09,0,.12,0,.12.12a3.7,3.7,0,0,1-.24.8c-.15.42-.3.84-.42,1.28a4.16,4.16,0,0,0-.18,1c0,.09,0,.15.09.15s.42-.18.87-.54ZM21.1,32.85c-1,0-1.6.71-2,2.14A13.63,13.63,0,0,0,21.1,32.85Z" transform="translate(-9.87 -7.25)"/> <path class="cls-1" d="M25.6,33.26l-.17.3a2.62,2.62,0,0,1-1-.45,15.57,15.57,0,0,0-1,2.45l-.12.36-.8.29a8.87,8.87,0,0,0,.41-1.28,6.94,6.94,0,0,0,.21-1.19.71.71,0,0,0-.09-.36c-.06-.09-.12-.15-.21-.15s-.09,0-.18.12a1.77,1.77,0,0,1-.35.27l-.15-.18.77-.8c.24-.24.39-.36.45-.42h.06c.12,0,.21.09.3.24a1.73,1.73,0,0,1,.09.62v.39a4.34,4.34,0,0,1,1.1-1.37l.27.15a.49.49,0,0,0-.06.3C25.07,32.79,25.25,33,25.6,33.26Z" transform="translate(-9.87 -7.25)"/> <path class="cls-1" d="M29.36,35.41a3.22,3.22,0,0,1-1.25.3,1.36,1.36,0,0,1-.9-.3,16,16,0,0,1-1.34-1.34l-.77,2.29-.39,0,.63-2.68a15.28,15.28,0,0,1,1-3.07L26,30.19a2.56,2.56,0,0,1,1.31-.77A.81.81,0,0,1,28,30a6.45,6.45,0,0,0-1.07,1.49,13.09,13.09,0,0,0-.81,2.11,4.11,4.11,0,0,0,2.24-1.25l.71.36a.74.74,0,0,1-.27.35,3.76,3.76,0,0,1-1,.36l-1,.3a3.58,3.58,0,0,0,.92,1.22,1.74,1.74,0,0,0,1,.42,1.18,1.18,0,0,0,.54-.12Z" transform="translate(-9.87 -7.25)"/> <path class="cls-1" d="M38.75,34.48a9.25,9.25,0,0,1-2.66,2.3,5,5,0,0,1-2.44.74,1.58,1.58,0,0,1-1.19-.44A1.68,1.68,0,0,1,32,35.83a6.16,6.16,0,0,1,.81-3,5.84,5.84,0,0,1,2.23-2.36,5.59,5.59,0,0,1,2.86-.83c1,0,1.46.27,1.46.8a3.48,3.48,0,0,1-1.25,2c-.83.83-1.49,1.28-1.94,1.28a.51.51,0,0,1-.3-.09.33.33,0,0,1-.11-.21,1.35,1.35,0,0,1,.26-.59,3.37,3.37,0,0,1,.72-.75l.39.12a2.55,2.55,0,0,0,.77-1.64c0-.36-.12-.54-.33-.54a4.21,4.21,0,0,0-2,.72,5.38,5.38,0,0,0-1.91,1.94A4.5,4.5,0,0,0,32.93,35,1.43,1.43,0,0,0,33.35,36a1.61,1.61,0,0,0,1.13.42c1.29,0,2.57-.74,3.91-2.23Z" transform="translate(-9.87 -7.25)"/> <path class="cls-1" d="M43.16,34.66c-.84.9-1.4,1.34-1.76,1.34-.18,0-.27-.08-.27-.23s0-.21.06-.54a12.11,12.11,0,0,0,.21-1.94c0-.09,0-.15-.06-.15a4.5,4.5,0,0,0-.81.78,3.44,3.44,0,0,0-.83,1.46,4,4,0,0,1-.81.21A6,6,0,0,1,39.25,34a1.68,1.68,0,0,0-.36-.81l.78-.38A6.37,6.37,0,0,1,42,29.42l.39.27c-.12.27-.24.5-.33.71s-.2.42-.32.6l-.36.53a3.43,3.43,0,0,1-.45.51l-.53.54L39.91,34a9.76,9.76,0,0,1,1.16-1.16,2.28,2.28,0,0,1,.86-.57c.18,0,.27.18.27.51a15.48,15.48,0,0,1-.3,2.44,3.58,3.58,0,0,0,1-.77Z" transform="translate(-9.87 -7.25)"/> <path class="cls-1" d="M47.09,35.47a6.44,6.44,0,0,1-1,.77,1.86,1.86,0,0,1-.87.3q-.18,0-.18-.27a7.81,7.81,0,0,1,.15-1.13,10,10,0,0,1,.36-1.43L43.36,36a4.48,4.48,0,0,0-.65.06,8.9,8.9,0,0,1,.86-2.2,5.38,5.38,0,0,1,1.31-1.4,2.44,2.44,0,0,1,1.32-.63.62.62,0,0,1,.47.27l-.44.54a1.41,1.41,0,0,1,.47-.12c.09,0,.12,0,.12.12a3.7,3.7,0,0,1-.24.8c-.15.42-.29.84-.41,1.28a4.16,4.16,0,0,0-.18,1c0,.09,0,.15.09.15s.41-.18.86-.54Zm-1.4-2.62c-.95,0-1.61.71-2,2.14A13.67,13.67,0,0,0,45.69,32.85Z" transform="translate(-9.87 -7.25)"/> <path class="cls-1" d="M49.8,29.48l-.12.53a10.85,10.85,0,0,1-.47,1.88,2,2,0,0,1-1,.75,1.78,1.78,0,0,0-.24.12c-.06,0-.12.18-.21.38a3.57,3.57,0,0,0-.17.75,6.88,6.88,0,0,0-.06.74,3.26,3.26,0,0,0,0,.54,2.67,2.67,0,0,1,.06.33.13.13,0,0,0,0,.09,1.38,1.38,0,0,0,.65-.21l.9-.48.11.27c-.14.12-.41.33-.8.6s-.66.47-.83.59a.79.79,0,0,1-.45.15.35.35,0,0,1-.33-.24,2.31,2.31,0,0,1-.09-.77A8.22,8.22,0,0,1,47,33.71a6.41,6.41,0,0,1,.51-1.46c.21-.42.53-.92.92-1.55s.66-1,.81-1.28Z" transform="translate(-9.87 -7.25)"/> <path class="cls-1" d="M52,35.17a5.6,5.6,0,0,1-1,.66,1.81,1.81,0,0,1-.86.2.89.89,0,0,1-.69-.32,1.25,1.25,0,0,1-.26-.81,2.21,2.21,0,0,1,.38-1.19,3.45,3.45,0,0,1,1-1.1,1.7,1.7,0,0,1,1-.48.29.29,0,0,1,.3.33c0,.77-.6,1.55-1.82,2.35a.78.78,0,0,0,.78.45,2.91,2.91,0,0,0,1.16-.33Zm-2.09-.63a2.62,2.62,0,0,0,.81-.74,1.44,1.44,0,0,0,.29-.69c0-.12-.06-.17-.18-.17s-.35.14-.59.47A1.83,1.83,0,0,0,49.89,34.54Z" transform="translate(-9.87 -7.25)"/> <path class="cls-1" d="M54.15,32.55A10,10,0,0,0,52.6,33a9,9,0,0,0-.38,1.94c0,.36.08.51.23.51a1.3,1.3,0,0,0,.66-.36c.3-.24.51-.42.68-.54l.21.21-.29.24a13.22,13.22,0,0,1-1.23.93,1.56,1.56,0,0,1-.65.29c-.18,0-.27-.27-.27-.77a9.76,9.76,0,0,1,.42-2.5,1,1,0,0,1-.36-.39,3.51,3.51,0,0,1,.6-.36,3.06,3.06,0,0,1,.59-1,1.62,1.62,0,0,1,.84-.57l.06.12a3.1,3.1,0,0,0-.48.69A1.39,1.39,0,0,0,53,32c0,.15.15.21.45.21a4.11,4.11,0,0,0,.56,0Z" transform="translate(-9.87 -7.25)"/> <path class="cls-1" d="M21.4,42.41V41.16h.54a.48.48,0,0,1,.36.12.36.36,0,0,1,0,.48.6.6,0,0,1-.24.12l.39.5h-.18l-.36-.48h-.36v.48H21.4Zm.15-.62h.39a.57.57,0,0,0,.24-.06.26.26,0,0,0,.09-.18.18.18,0,0,0-.09-.18.57.57,0,0,0-.24-.06h-.39Z" transform="translate(-9.87 -7.25)"/> <path class="cls-1" d="M24,42.41V41.16h.9v.12h-.75v.42h.69v.12h-.69v.44H25v.12H24Z" transform="translate(-9.87 -7.25)"/> <path class="cls-1" d="M27,42.41a.7.7,0,0,1-.5-.21l.09-.09a.54.54,0,0,0,.21.15.56.56,0,0,0,.23,0,.43.43,0,0,0,.21-.06.16.16,0,0,0,.09-.15.23.23,0,0,0-.06-.15,1,1,0,0,0-.27-.08,1.35,1.35,0,0,1-.32-.12.3.3,0,0,1-.09-.24.27.27,0,0,1,.12-.24.5.5,0,0,1,.29-.09.74.74,0,0,1,.45.15l-.09.12a.62.62,0,0,0-.36-.15.24.24,0,0,0-.17.06.22.22,0,0,0,0,.3l.26.09a.56.56,0,0,1,.3.12.26.26,0,0,1,.09.23.33.33,0,0,1-.12.27A1.51,1.51,0,0,1,27,42.41Z" transform="translate(-9.87 -7.25)"/> <path class="cls-1" d="M29.09,42.41V41.16h.15v1.25Z" transform="translate(-9.87 -7.25)"/> <path class="cls-1" d="M30.94,42.41V41.16h.45a.63.63,0,0,1,.47.18.61.61,0,0,1,.18.45.6.6,0,0,1-.18.44.67.67,0,0,1-.47.18Zm.15-.15h.3a.63.63,0,0,0,.38-.15.49.49,0,0,0,.15-.35.5.5,0,0,0-.15-.36.51.51,0,0,0-.38-.15h-.3Z" transform="translate(-9.87 -7.25)"/> <path class="cls-1" d="M33.68,42.41V41.16h.89v.12H33.8v.42h.68v.12H33.8v.44h.77v.12h-.89Z" transform="translate(-9.87 -7.25)"/> <path class="cls-1" d="M36.21,42.41V41.16h.12l.81,1v-1h.15v1.25h-.12l-.81-1v1Z" transform="translate(-9.87 -7.25)"/> <path class="cls-1" d="M39.55,42.41a.61.61,0,0,1-.45-.18.6.6,0,0,1-.18-.44.62.62,0,0,1,.63-.63.6.6,0,0,1,.27.06.91.91,0,0,1,.21.15l-.09.09a.53.53,0,0,0-.39-.18.51.51,0,0,0-.51.51.49.49,0,0,0,.15.35.5.5,0,0,0,.36.15c.09,0,.15,0,.21,0a.8.8,0,0,0,.18-.15l.09.09a.91.91,0,0,1-.21.15C39.76,42.41,39.67,42.41,39.55,42.41Z" transform="translate(-9.87 -7.25)"/> <path class="cls-1" d="M41.67,42.41V41.16h.89v.12h-.77v.42h.68v.12h-.68v.44h.77v.12h-.89Z" transform="translate(-9.87 -7.25)"/> </svg>